<?xml version="1.0" encoding="UTF-8" standalone="no"?>
<svg
   version="1.1"
   width="765"
   height="625"
   viewBox="0 0 300 300"
   class="svg-animations "
   style="background-color: rgb(93, 91, 106);"
   id="svg16"
   sodipodi:docname="logo (1).svg"
   inkscape:version="1.1.1 (3bf5ae0d25, 2021-09-20)"
   xmlns:inkscape="http://www.inkscape.org/namespaces/inkscape"
   xmlns:sodipodi="http://sodipodi.sourceforge.net/DTD/sodipodi-0.dtd"
   xmlns="http://www.w3.org/2000/svg"
   xmlns:svg="http://www.w3.org/2000/svg">
  <defs
     id="defs20" />
  <sodipodi:namedview
     id="namedview18"
     pagecolor="#ffffff"
     bordercolor="#666666"
     borderopacity="1.0"
     inkscape:pageshadow="2"
     inkscape:pageopacity="0.0"
     inkscape:pagecheckerboard="0"
     showgrid="false"
     inkscape:zoom="1.3968"
     inkscape:cx="382.66037"
     inkscape:cy="369.41581"
     inkscape:window-width="4480"
     inkscape:window-height="2428"
     inkscape:window-x="4468"
     inkscape:window-y="-12"
     inkscape:window-maximized="1"
     inkscape:current-layer="svg16" />
  <svg
     version="1.1"
     viewBox="0 0 134 139"
     width="100"
     height="100"
     style="fill:#aad400"
     x="30.029998779296875"
     y="100"
     id="svg6">
    <svg
       width="134"
       height="134"
       viewBox="0 0 134 134"
       version="1.1"
       id="svg4"
       style="fill:#aad400">
      <path
         d="M 67,0 C 29.9943,0 0,29.9943 0,67 c 0,37.006 29.9943,67 67,67 37.006,0 67,-29.994 67,-67 C 134,29.9943 104.006,0 67,0 Z m 9.208,89.4119 C 65.6101,94.9715 54.6896,98.955 43.7938,101.4 47.3058,90.5908 71.040509,79.3601 71.040509,68.1293 71.040509,56.8985 47.3058,45.6677 43.7938,34.8589 54.6896,37.2912 65.6101,41.2871 76.208,46.8466 86.8059,52.3938 97.0935,59.5169 106.699,68.1293 97.0811,76.754 86.8059,83.8648 76.208,89.4119 Z"
         id="path2"
         style="fill:#aad400"
         sodipodi:nodetypes="sssssccscccc" />
    </svg>
  </svg>
  <svg
     version="1.1"
     style="fill:#002b00"
     x="140.02999877929688"
     y="133.8450002670288"
     id="svg10">
    <path
       d="M7.03 26L8.63 19.13L13.14 3.25L15.33 3.25L14.06 9.42L9.20 26L7.03 26ZM0.95 3.25L3.95 3.25L7.55 18.81L8.63 26L6.47 26L0.95 3.25ZM20.05 26L21.17 18.80L24.69 3.25L27.70 3.25L22.20 26L20.05 26ZM13.50 3.25L15.66 3.25L20.05 19.13L21.64 26L19.47 26L14.78 9.42L13.50 3.25ZM30.83 9.09L33.73 9.09L33.73 26L30.83 26L30.83 9.09ZM30.61 4.61L30.61 4.61Q30.61 3.91 31.04 3.42Q31.47 2.94 32.31 2.94L32.31 2.94Q33.14 2.94 33.59 3.42Q34.03 3.91 34.03 4.61L34.03 4.61Q34.03 5.28 33.59 5.76Q33.14 6.23 32.31 6.23L32.31 6.23Q31.47 6.23 31.04 5.76Q30.61 5.28 30.61 4.61ZM38.61 2L41.52 2L41.52 26L38.61 26L38.61 2ZM57.06 26L56.81 22.72L56.81 2L59.72 2L59.72 26L57.06 26ZM45.44 17.73L45.44 17.73L45.44 17.41Q45.44 15.47 45.91 13.88Q46.39 12.30 47.27 11.16Q48.16 10.02 49.38 9.40Q50.61 8.78 52.13 8.78L52.13 8.78Q53.72 8.78 54.91 9.34Q56.11 9.89 56.95 10.95Q57.78 12 58.27 13.48Q58.75 14.97 58.94 16.84L58.94 16.84L58.94 18.28Q58.77 20.14 58.27 21.63Q57.78 23.11 56.95 24.16Q56.11 25.20 54.91 25.76Q53.70 26.31 52.09 26.31L52.09 26.31Q50.61 26.31 49.38 25.67Q48.16 25.03 47.27 23.88Q46.39 22.72 45.91 21.15Q45.44 19.58 45.44 17.73ZM48.34 17.41L48.34 17.41L48.34 17.73Q48.34 19 48.60 20.11Q48.86 21.22 49.41 22.06Q49.95 22.91 50.80 23.38Q51.64 23.86 52.81 23.86L52.81 23.86Q54.25 23.86 55.18 23.25Q56.11 22.64 56.67 21.64Q57.23 20.64 57.55 19.47L57.55 19.47L57.55 15.70Q57.36 14.84 57.01 14.04Q56.66 13.23 56.10 12.60Q55.55 11.97 54.74 11.59Q53.94 11.22 52.84 11.22L52.84 11.22Q51.66 11.22 50.80 11.71Q49.95 12.20 49.41 13.05Q48.86 13.91 48.60 15.02Q48.34 16.14 48.34 17.41ZM67.02 9.09L67.09 11.75L67.09 26L64.20 26L64.20 9.09L67.02 9.09ZM72.38 9L72.38 9L72.36 11.69Q72 11.61 71.68 11.59Q71.36 11.56 70.95 11.56L70.95 11.56Q69.95 11.56 69.19 11.88Q68.42 12.19 67.89 12.75Q67.36 13.31 67.05 14.09Q66.75 14.86 66.66 15.78L66.66 15.78L65.84 16.25Q65.84 14.72 66.15 13.38Q66.45 12.03 67.09 10.99Q67.73 9.95 68.73 9.37Q69.72 8.78 71.09 8.78L71.09 8.78Q71.41 8.78 71.81 8.85Q72.22 8.92 72.38 9ZM84.39 23.11L84.39 23.11L84.39 14.41Q84.39 13.41 83.99 12.66Q83.59 11.92 82.80 11.52Q82 11.11 80.83 11.11L80.83 11.11Q79.73 11.11 78.91 11.48Q78.09 11.86 77.63 12.47Q77.17 13.08 77.17 13.78L77.17 13.78L74.28 13.78Q74.28 12.88 74.75 11.98Q75.22 11.09 76.10 10.37Q76.98 9.64 78.23 9.21Q79.47 8.78 81 8.78L81 8.78Q82.84 8.78 84.26 9.41Q85.67 10.03 86.48 11.29Q87.28 12.55 87.28 14.44L87.28 14.44L87.28 22.31Q87.28 23.16 87.43 24.11Q87.58 25.06 87.88 25.75L87.88 25.75L87.88 26L84.86 26Q84.64 25.50 84.52 24.66Q84.39 23.83 84.39 23.11ZM81.53 15.75L84.89 15.75L84.92 17.78L82 17.78Q80.77 17.78 79.80 17.98Q78.83 18.17 78.17 18.56Q77.52 18.95 77.17 19.54Q76.83 20.13 76.83 20.91L76.83 20.91Q76.83 21.70 77.19 22.36Q77.55 23.02 78.27 23.40Q79 23.78 80.06 23.78L80.06 23.78Q81.39 23.78 82.41 23.22Q83.42 22.66 84.02 21.84Q84.63 21.03 84.67 20.27L84.67 20.27L85.91 21.66Q85.80 22.31 85.31 23.11Q84.83 23.91 84.02 24.63Q83.22 25.36 82.12 25.84Q81.02 26.31 79.64 26.31L79.64 26.31Q77.92 26.31 76.63 25.64Q75.34 24.97 74.63 23.84Q73.92 22.70 73.92 21.30L73.92 21.30Q73.92 19.94 74.45 18.90Q74.98 17.86 75.98 17.16Q76.98 16.47 78.39 16.11Q79.80 15.75 81.53 15.75L81.53 15.75ZM89.77 9.09L98.91 9.09L98.91 11.31L89.77 11.31L89.77 9.09ZM92.86 21.80L92.86 4.98L95.75 4.98L95.75 21.81Q95.75 22.67 96.02 23.11Q96.28 23.55 96.70 23.69Q97.13 23.83 97.61 23.83L97.61 23.83Q97.97 23.83 98.37 23.76Q98.77 23.69 98.97 23.64L98.97 23.64L98.98 26Q98.64 26.11 98.09 26.21Q97.53 26.31 96.75 26.31L96.75 26.31Q95.69 26.31 94.80 25.89Q93.91 25.47 93.38 24.48Q92.86 23.48 92.86 21.80L92.86 21.80ZM109.31 26.31L109.31 26.31Q107.55 26.31 106.12 25.71Q104.69 25.11 103.66 24.02Q102.64 22.92 102.09 21.42Q101.55 19.92 101.55 18.14L101.55 18.14L101.55 17.48Q101.55 15.42 102.16 13.80Q102.77 12.19 103.81 11.06Q104.86 9.94 106.19 9.36Q107.52 8.78 108.94 8.78L108.94 8.78Q110.75 8.78 112.07 9.41Q113.39 10.03 114.23 11.15Q115.08 12.27 115.48 13.77Q115.89 15.28 115.89 17.06L115.89 17.06L115.89 18.36L103.27 18.36L103.27 16L113 16L113 15.78Q112.94 14.66 112.54 13.59Q112.14 12.53 111.28 11.84Q110.42 11.16 108.94 11.16L108.94 11.16Q107.95 11.16 107.13 11.57Q106.30 11.98 105.70 12.80Q105.11 13.61 104.78 14.78Q104.45 15.95 104.45 17.48L104.45 17.48L104.45 18.14Q104.45 19.34 104.79 20.40Q105.13 21.45 105.77 22.25Q106.42 23.05 107.35 23.50Q108.28 23.95 109.47 23.95L109.47 23.95Q111 23.95 112.06 23.33Q113.13 22.70 113.92 21.66L113.92 21.66L115.67 23.05Q115.13 23.88 114.28 24.63Q113.44 25.38 112.21 25.84Q110.98 26.31 109.31 26.31Z"
       id="path8"
       style="fill:#002b00" />
  </svg>
  <svg
     version="1.1"
     style="fill: rgb(255, 255, 255);"
     x="200"
     y="166.1549997329712"
     id="svg14">
    <path
       d=""
       id="path12" />
  </svg>
</svg>
