<?xml version="1.0" encoding="UTF-8" standalone="no"?>
<svg
   version="1.1"
   width="765"
   height="625"
   viewBox="0 0 300 300"
   class="svg-animations "
   style="background-color: rgb(93, 91, 106);"
   id="svg16"
   sodipodi:docname="logo-only.svg"
   inkscape:version="1.1.1 (3bf5ae0d25, 2021-09-20)"
   xmlns:inkscape="http://www.inkscape.org/namespaces/inkscape"
   xmlns:sodipodi="http://sodipodi.sourceforge.net/DTD/sodipodi-0.dtd"
   xmlns="http://www.w3.org/2000/svg"
   xmlns:svg="http://www.w3.org/2000/svg">
  <defs
     id="defs20" />
  <sodipodi:namedview
     id="namedview18"
     pagecolor="#ffffff"
     bordercolor="#666666"
     borderopacity="1.0"
     inkscape:pageshadow="2"
     inkscape:pageopacity="0.0"
     inkscape:pagecheckerboard="0"
     showgrid="false"
     inkscape:zoom="0.98768675"
     inkscape:cx="-664.68442"
     inkscape:cy="116.43368"
     inkscape:window-width="4480"
     inkscape:window-height="2428"
     inkscape:window-x="4468"
     inkscape:window-y="-12"
     inkscape:window-maximized="1"
     inkscape:current-layer="svg6" />
  <svg
     version="1.1"
     viewBox="0 0 134 139"
     width="100"
     height="100"
     style="fill:#aad400"
     x="30.029998779296875"
     y="100"
     id="svg6">
    <svg
       width="134"
       height="134"
       viewBox="0 0 134 134"
       version="1.1"
       id="svg4"
       style="fill:#aad400"
       inkscape:export-filename="C:\Users\timlu\Downloads\svg4.png"
       inkscape:export-xdpi="96"
       inkscape:export-ydpi="96">
      <path
         d="M 67,0 C 29.9943,0 0,29.9943 0,67 c 0,37.006 29.9943,67 67,67 37.006,0 67,-29.994 67,-67 C 134,29.9943 104.006,0 67,0 Z m 9.208,89.4119 C 65.6101,94.9715 54.6896,98.955 43.7938,101.4 47.3058,90.5908 71.040509,79.3601 71.040509,68.1293 71.040509,56.8985 47.3058,45.6677 43.7938,34.8589 54.6896,37.2912 65.6101,41.2871 76.208,46.8466 86.8059,52.3938 97.0935,59.5169 106.699,68.1293 97.0811,76.754 86.8059,83.8648 76.208,89.4119 Z"
         id="path2"
         style="fill:#aad400"
         sodipodi:nodetypes="sssssccscccc" />
    </svg>
  </svg>
  <svg
     version="1.1"
     style="fill: rgb(255, 255, 255);"
     x="200"
     y="166.1549997329712"
     id="svg14">
    <path
       d=""
       id="path12" />
  </svg>
</svg>
